<svg xmlns="http://www.w3.org/2000/svg" xmlns:xlink="http://www.w3.org/1999/xlink" width="860" height="407.36"><rect width="860" height="407.36" rx="5" ry="5" class="a"/><svg y="0%" x="0%"><circle cx="20" cy="20" r="6" fill="#ff5f58"/><circle cx="40" cy="20" r="6" fill="#ffbd2e"/><circle cx="60" cy="20" r="6" fill="#18c132"/></svg><svg height="347.36" viewBox="0 0 82 34.736" width="820" x="15" xmlns="http://www.w3.org/2000/svg" xmlns:xlink="http://www.w3.org/1999/xlink" y="50"><style>@keyframes l{0%{transform:translateX(0)}4.97%{transform:translateX(-82px)}5.04%{transform:translateX(-246px)}15.75%{transform:translateX(-328px)}18.41%{transform:translateX(-410px)}19.82%{transform:translateX(-492px)}21.1%{transform:translateX(-574px)}22.5%{transform:translateX(-656px)}24.84%{transform:translateX(-738px)}25.64%{transform:translateX(-820px)}28.57%{transform:translateX(-984px)}28.61%{transform:translateX(-1066px)}34.46%{transform:translateX(-1148px)}35.84%{transform:translateX(-1230px)}37.26%{transform:translateX(-1312px)}38.66%{transform:translateX(-1394px)}40.46%{transform:translateX(-1476px)}43.67%{transform:translateX(-1558px)}48.62%{transform:translateX(-1640px)}52.23%{transform:translateX(-1722px)}55.96%{transform:translateX(-1804px)}58.44%{transform:translateX(-1886px)}63.39%{transform:translateX(-1968px)}65.73%{transform:translateX(-2050px)}68.67%{transform:translateX(-2132px)}70.68%{transform:translateX(-2214px)}75.65%{transform:translateX(-2296px)}80.08%{transform:translateX(-2460px)}91.98%{transform:translateX(-2788px)}92.06%{transform:translateX(-3034px)}to{transform:translateX(-3116px)}}.a{fill:#282d35}.f{fill:#a8cc8c;font-weight:700}.f,.g,.h{white-space:pre}.g{fill:#66c2cd;font-weight:700}.h{fill:#b9c0cb}</style><g font-family="Monaco,Consolas,Menlo,'Bitstream Vera Sans Mono','Powerline Symbols',monospace" font-size="1.67"><defs><symbol id="1"><text y="1.67" class="f">➜</text><text x="3.006" y="1.67" class="g">~</text></symbol><symbol id="2"><text y="1.67" class="f">➜</text><text x="3.006" y="1.67" class="g">~</text><text x="5.01" y="1.67" class="h">./taupe</text></symbol><symbol id="3"><text y="1.67" class="h">print</text></symbol><symbol id="4"><text y="1.67" class="h">print</text><text x="6.012" y="1.67" class="h">(</text></symbol><symbol id="5"><text y="1.67" class="h">print</text><text x="6.012" y="1.67" class="h">(</text><text x="8.016" y="1.67" class="h">+</text></symbol><symbol id="6"><text y="1.67" class="h">print</text><text x="6.012" y="1.67" class="h">(</text><text x="8.016" y="1.67" class="h">+</text><text x="10.02" y="1.67" class="h">3</text></symbol><symbol id="7"><text y="1.67" class="h">print</text><text x="6.012" y="1.67" class="h">(</text><text x="8.016" y="1.67" class="h">+</text><text x="10.02" y="1.67" class="h">3</text><text x="12.024" y="1.67" class="h">3</text></symbol><symbol id="8"><text y="1.67" class="h">print</text><text x="6.012" y="1.67" class="h">(</text><text x="8.016" y="1.67" class="h">+</text><text x="10.02" y="1.67" class="h">3</text><text x="12.024" y="1.67" class="h">3</text><text x="14.028" y="1.67" class="h">)</text></symbol><symbol id="9"><text y="1.67" class="h">&gt;</text><text x="2.004" y="1.67" class="h">6</text></symbol><symbol id="10"><text y="1.67" class="h">^C</text></symbol><symbol id="11"><text y="1.67" style="white-space:pre" fill="#e88388" font-weight="700">➜</text><text x="3.006" y="1.67" class="g">~</text></symbol><symbol id="a"><path fill="transparent" d="M0 0h82v16H0z"/></symbol><symbol id="b"><path fill="#6f7683" d="M0 0h1.102v2.171H0z"/></symbol></defs><path class="a" d="M0 0h82v34.736H0z"/><g style="animation-duration:16.839148s;animation-iteration-count:infinite;animation-name:l;animation-timing-function:steps(1,end)"><svg width="3198"><svg><use xlink:href="#a"/><use xlink:href="#b" x="-.004"/></svg><svg x="82"><use xlink:href="#a"/><use xlink:href="#b" x="-.004"/></svg><svg x="164"><use xlink:href="#a"/><use xlink:href="#b" x="4.996"/><use xlink:href="#1"/></svg><svg x="246"><use xlink:href="#a"/><use xlink:href="#b" x="4.996"/><use xlink:href="#1"/></svg><svg x="328"><use xlink:href="#a"/><use xlink:href="#b" x="5.996"/><text y="1.67" class="f">➜</text><text x="3.006" y="1.67" class="g">~</text><text x="5.01" y="1.67" class="h">.</text></svg><svg x="410"><use xlink:href="#a"/><use xlink:href="#b" x="6.996"/><text y="1.67" class="f">➜</text><text x="3.006" y="1.67" class="g">~</text><text x="5.01" y="1.67" class="h">./</text></svg><svg x="492"><use xlink:href="#a"/><use xlink:href="#b" x="7.996"/><text y="1.67" class="f">➜</text><text x="3.006" y="1.67" class="g">~</text><text x="5.01" y="1.67" class="h">./t</text></svg><svg x="574"><use xlink:href="#a"/><use xlink:href="#b" x="8.996"/><text y="1.67" class="f">➜</text><text x="3.006" y="1.67" class="g">~</text><text x="5.01" y="1.67" class="h">./ta</text></svg><svg x="656"><use xlink:href="#a"/><use xlink:href="#b" x="9.996"/><text y="1.67" class="f">➜</text><text x="3.006" y="1.67" class="g">~</text><text x="5.01" y="1.67" class="h">./tau</text></svg><svg x="738"><use xlink:href="#a"/><use xlink:href="#b" x="10.996"/><text y="1.67" class="f">➜</text><text x="3.006" y="1.67" class="g">~</text><text x="5.01" y="1.67" class="h">./taup</text></svg><svg x="820"><use xlink:href="#a"/><use xlink:href="#b" x="11.996"/><use xlink:href="#2"/></svg><svg x="902"><use xlink:href="#a"/><use xlink:href="#b" x="11.996"/><use xlink:href="#2"/></svg><svg x="984"><use xlink:href="#a"/><use xlink:href="#b" x="-.004" y="2.146"/><use xlink:href="#2"/></svg><svg x="1066"><use xlink:href="#a"/><use xlink:href="#b" x="-.004" y="2.146"/><use xlink:href="#2"/></svg><svg x="1148"><use xlink:href="#a"/><use xlink:href="#b" x=".996" y="2.146"/><use xlink:href="#2"/><text y="3.841" class="h">p</text></svg><svg x="1230"><use xlink:href="#a"/><use xlink:href="#b" x="1.996" y="2.146"/><use xlink:href="#2"/><text y="3.841" class="h">pr</text></svg><svg x="1312"><use xlink:href="#a"/><use xlink:href="#b" x="2.996" y="2.146"/><use xlink:href="#2"/><text y="3.841" class="h">pri</text></svg><svg x="1394"><use xlink:href="#a"/><use xlink:href="#b" x="3.996" y="2.146"/><use xlink:href="#2"/><text y="3.841" class="h">prin</text></svg><svg x="1476"><use xlink:href="#a"/><use xlink:href="#b" x="4.996" y="2.146"/><use xlink:href="#2"/><use xlink:href="#3" y="2.171"/></svg><svg x="1558"><use xlink:href="#a"/><use xlink:href="#b" x="5.996" y="2.146"/><use xlink:href="#2"/><use xlink:href="#3" y="2.171"/></svg><svg x="1640"><use xlink:href="#a"/><use xlink:href="#b" x="6.996" y="2.146"/><use xlink:href="#2"/><use xlink:href="#4" y="2.171"/></svg><svg x="1722"><use xlink:href="#a"/><use xlink:href="#b" x="7.996" y="2.146"/><use xlink:href="#2"/><use xlink:href="#4" y="2.171"/></svg><svg x="1804"><use xlink:href="#a"/><use xlink:href="#b" x="8.996" y="2.146"/><use xlink:href="#2"/><use xlink:href="#5" y="2.171"/></svg><svg x="1886"><use xlink:href="#a"/><use xlink:href="#b" x="9.996" y="2.146"/><use xlink:href="#2"/><use xlink:href="#5" y="2.171"/></svg><svg x="1968"><use xlink:href="#a"/><use xlink:href="#b" x="10.996" y="2.146"/><use xlink:href="#2"/><use xlink:href="#6" y="2.171"/></svg><svg x="2050"><use xlink:href="#a"/><use xlink:href="#b" x="11.996" y="2.146"/><use xlink:href="#2"/><use xlink:href="#6" y="2.171"/></svg><svg x="2132"><use xlink:href="#a"/><use xlink:href="#b" x="12.996" y="2.146"/><use xlink:href="#2"/><use xlink:href="#7" y="2.171"/></svg><svg x="2214"><use xlink:href="#a"/><use xlink:href="#b" x="13.996" y="2.146"/><use xlink:href="#2"/><use xlink:href="#7" y="2.171"/></svg><svg x="2296"><use xlink:href="#a"/><use xlink:href="#b" x="14.996" y="2.146"/><use xlink:href="#2"/><use xlink:href="#8" y="2.171"/></svg><svg x="2378"><use xlink:href="#a"/><use xlink:href="#b" x="-.004" y="4.317"/><use xlink:href="#2"/><use xlink:href="#8" y="2.171"/></svg><svg x="2460"><use xlink:href="#a"/><use xlink:href="#b" x="-.004" y="6.488"/><use xlink:href="#2"/><use xlink:href="#8" y="2.171"/><use xlink:href="#9" y="4.342"/></svg><svg x="2542"><use xlink:href="#a"/><use xlink:href="#b" x="1.996" y="6.488"/><use xlink:href="#2"/><use xlink:href="#8" y="2.171"/><use xlink:href="#9" y="4.342"/><use xlink:href="#10" y="6.513"/></svg><svg x="2624"><use xlink:href="#a"/><use xlink:href="#b" x="-.004" y="8.659"/><use xlink:href="#2"/><use xlink:href="#8" y="2.171"/><use xlink:href="#9" y="4.342"/><use xlink:href="#10" y="6.513"/></svg><svg x="2706"><use xlink:href="#a"/><use xlink:href="#b" x="-.004" y="8.659"/><use xlink:href="#2"/><use xlink:href="#8" y="2.171"/><use xlink:href="#9" y="4.342"/><use xlink:href="#10" y="6.513"/></svg><svg x="2788"><use xlink:href="#a"/><use xlink:href="#b" x="-.004" y="8.659"/><use xlink:href="#2"/><use xlink:href="#8" y="2.171"/><use xlink:href="#9" y="4.342"/><use xlink:href="#10" y="6.513"/></svg><svg x="2870"><use xlink:href="#a"/><use xlink:href="#b" x="4.996" y="8.659"/><use xlink:href="#2"/><use xlink:href="#8" y="2.171"/><use xlink:href="#9" y="4.342"/><use xlink:href="#10" y="6.513"/><use xlink:href="#11" y="8.684"/></svg><svg x="2952"><use xlink:href="#a"/><use xlink:href="#b" x="4.996" y="8.659"/><use xlink:href="#2"/><use xlink:href="#8" y="2.171"/><use xlink:href="#9" y="4.342"/><use xlink:href="#10" y="6.513"/><use xlink:href="#11" y="8.684"/></svg><svg x="3034"><use xlink:href="#a"/><use xlink:href="#b" x="4.996" y="8.659"/><use xlink:href="#2"/><use xlink:href="#8" y="2.171"/><use xlink:href="#9" y="4.342"/><use xlink:href="#10" y="6.513"/><use xlink:href="#11" y="8.684"/></svg><svg x="3116"><use xlink:href="#a"/><use xlink:href="#b" x="-.004" y="10.83"/><use xlink:href="#2"/><use xlink:href="#8" y="2.171"/><use xlink:href="#9" y="4.342"/><use xlink:href="#10" y="6.513"/><use xlink:href="#11" y="8.684"/></svg></svg></g></g></svg></svg>