<svg xmlns="http://www.w3.org/2000/svg" xmlns:xlink="http://www.w3.org/1999/xlink" width="1690" height="1406.02"><rect width="1690" height="1406.02" rx="5" ry="5" class="a"/><svg y="0%" x="0%"><circle cx="20" cy="20" r="6" fill="#ff5f58"/><circle cx="40" cy="20" r="6" fill="#ffbd2e"/><circle cx="60" cy="20" r="6" fill="#18c132"/></svg><svg height="1346.02" viewBox="0 0 165 134.602" width="1650" x="15" xmlns="http://www.w3.org/2000/svg" xmlns:xlink="http://www.w3.org/1999/xlink" y="50"><style>@keyframes m{0%{transform:translateX(0)}4.62%{transform:translateX(-165px)}4.89%{transform:translateX(-495px)}17.22%{transform:translateX(-660px)}17.97%{transform:translateX(-825px)}18.61%{transform:translateX(-990px)}19.65%{transform:translateX(-1155px)}20.11%{transform:translateX(-1320px)}20.93%{transform:translateX(-1485px)}21.21%{transform:translateX(-1650px)}21.8%{transform:translateX(-1815px)}22.9%{transform:translateX(-1980px)}26.49%{transform:translateX(-2310px)}26.52%{transform:translateX(-2475px)}27.31%{transform:translateX(-2970px)}39.19%{transform:translateX(-3135px)}39.54%{transform:translateX(-3300px)}40.34%{transform:translateX(-3465px)}41.04%{transform:translateX(-3630px)}41.97%{transform:translateX(-3795px)}43.36%{transform:translateX(-4125px)}50.2%{transform:translateX(-4290px)}50.84%{transform:translateX(-4455px)}51.3%{transform:translateX(-4620px)}52.29%{transform:translateX(-4785px)}52.69%{transform:translateX(-4950px)}61.7%{transform:translateX(-5115px)}63.83%{transform:translateX(-5280px)}65.39%{transform:translateX(-5445px)}66.03%{transform:translateX(-5610px)}66.95%{transform:translateX(-5775px)}67.59%{transform:translateX(-5940px)}68.58%{transform:translateX(-6105px)}70.2%{transform:translateX(-6270px)}72.41%{transform:translateX(-6930px)}91.54%{transform:translateX(-7590px)}91.79%{transform:translateX(-7920px)}to{transform:translateX(-8085px)}}.a{fill:#282d35}.f{fill:#a8cc8c;white-space:pre}.f,.g,.h{font-weight:700}.g{fill:#66c2cd;white-space:pre}.h{fill:#71bef2}.h,.i,.j{white-space:pre}.i{fill:#e88388;font-weight:700}.j{fill:#b9c0cb}</style><g font-family="Monaco,Consolas,Menlo,'Bitstream Vera Sans Mono','Powerline Symbols',monospace" font-size="1.67"><defs><symbol id="1"><text y="1.67" class="f">➜</text><text x="3.006" y="1.67" class="g">peitho</text><text x="10.02" y="1.67" class="h">git:(</text><text x="15.03" y="1.67" class="i">main</text><text x="19.038" y="1.67" class="h">)</text></symbol><symbol id="2"><text y="1.67" class="f">➜</text><text x="3.006" y="1.67" class="g">peitho</text><text x="10.02" y="1.67" class="h">git:(</text><text x="15.03" y="1.67" class="i">main</text><text x="19.038" y="1.67" class="h">)</text><text x="21.042" y="1.67" class="j">cargo</text></symbol><symbol id="3"><text y="1.67" class="f">➜</text><text x="3.006" y="1.67" class="g">peitho</text><text x="10.02" y="1.67" class="h">git:(</text><text x="15.03" y="1.67" class="i">main</text><text x="19.038" y="1.67" class="h">)</text><text x="21.042" y="1.67" class="j">cargo</text><text x="27.054" y="1.67" class="j">run</text></symbol><symbol id="4"><text x="4.008" y="1.67" class="f">Finished</text><text x="13.026" y="1.67" class="j">dev</text><text x="17.034" y="1.67" class="j">[unoptimized</text><text x="30.06" y="1.67" class="j">+</text><text x="32.064" y="1.67" class="j">debuginfo]</text><text x="43.086" y="1.67" class="j">target(s)</text><text x="53.106" y="1.67" class="j">in</text><text x="56.112" y="1.67" class="j">0.04s</text></symbol><symbol id="5"><text x="5.01" y="1.67" class="f">Running</text><text x="13.026" y="1.67" class="j">`target/debug/peitho`</text></symbol><symbol id="6"><text y="1.67" class="j">hello</text></symbol><symbol id="7"><text y="1.67" class="j">&gt;</text><text x="2.004" y="1.67" class="j">scanning...</text><text x="14.028" y="1.67" class="j">hello</text></symbol><symbol id="8"><text y="1.67" class="j">currently</text><text x="10.02" y="1.67" class="j">evaluating:</text><text x="22.044" y="1.67" class="j">h</text></symbol><symbol id="9"><text y="1.67" class="j">building...</text><text x="12.024" y="1.67" class="j">he</text></symbol><symbol id="10"><text y="1.67" class="j">building...</text><text x="12.024" y="1.67" class="j">hel</text></symbol><symbol id="11"><text y="1.67" class="j">building...</text><text x="12.024" y="1.67" class="j">hell</text></symbol><symbol id="12"><text y="1.67" class="j">building...</text><text x="12.024" y="1.67" class="j">hello</text></symbol><symbol id="13"><text y="1.67" class="j">[1]</text><text x="4.008" y="1.67" class="j">Error</text><text x="10.02" y="1.67" class="j">:</text><text x="12.024" y="1.67" class="j">Unrecognized</text><text x="25.05" y="1.67" class="j">keyword:</text><text x="34.068" y="1.67" class="j">hello</text></symbol><symbol id="14"><text y="1.67" class="j">print</text></symbol><symbol id="15"><text y="1.67" class="j">print</text><text x="6.012" y="1.67" class="j">&quot;hello&quot;</text></symbol><symbol id="16"><text y="1.67" class="j">&gt;</text><text x="2.004" y="1.67" class="j">scanning...</text><text x="14.028" y="1.67" class="j">print</text><text x="20.04" y="1.67" class="j">&quot;hello&quot;</text></symbol><symbol id="17"><text y="1.67" class="j">currently</text><text x="10.02" y="1.67" class="j">evaluating:</text><text x="22.044" y="1.67" class="j">p</text></symbol><symbol id="18"><text y="1.67" class="j">building...</text><text x="12.024" y="1.67" class="j">pr</text></symbol><symbol id="19"><text y="1.67" class="j">building...</text><text x="12.024" y="1.67" class="j">pri</text></symbol><symbol id="20"><text y="1.67" class="j">building...</text><text x="12.024" y="1.67" class="j">prin</text></symbol><symbol id="21"><text y="1.67" class="j">building...</text><text x="12.024" y="1.67" class="j">print</text></symbol><symbol id="22"><text y="1.67" class="j">currently</text><text x="10.02" y="1.67" class="j">evaluating:</text><text x="22.044" y="1.67" class="j">&quot;</text></symbol><symbol id="23"><text y="1.67" class="j">currently</text><text x="10.02" y="1.67" class="j">evaluating:</text></symbol><symbol id="24"><text y="1.67" class="j">Token</text><text x="6.012" y="1.67" class="j">{</text><text x="8.016" y="1.67" class="j">token_type:</text><text x="20.04" y="1.67" class="j">PRINT,</text><text x="27.054" y="1.67" class="j">lexeme:</text><text x="35.07" y="1.67" class="j">&quot;print&quot;,</text><text x="44.088" y="1.67" class="j">literal:</text><text x="53.106" y="1.67" class="j">&quot;print&quot;,</text><text x="62.124" y="1.67" class="j">line:</text><text x="68.136" y="1.67" class="j">1</text><text x="70.14" y="1.67" class="j">}</text></symbol><symbol id="25"><text y="1.67" class="j">Token</text><text x="6.012" y="1.67" class="j">{</text><text x="8.016" y="1.67" class="j">token_type:</text><text x="20.04" y="1.67" class="j">STRING,</text><text x="28.056" y="1.67" class="j">lexeme:</text><text x="36.072" y="1.67" class="j">&quot;hello&quot;,</text><text x="45.09" y="1.67" class="j">literal:</text><text x="54.108" y="1.67" class="j">&quot;hello&quot;,</text><text x="63.126" y="1.67" class="j">line:</text><text x="69.138" y="1.67" class="j">1</text><text x="71.142" y="1.67" class="j">}</text></symbol><symbol id="26"><text y="1.67" class="j">^C</text></symbol><symbol id="27"><text y="1.67" class="i">➜</text><text x="3.006" y="1.67" class="g">peitho</text><text x="10.02" y="1.67" class="h">git:(</text><text x="15.03" y="1.67" class="i">main</text><text x="19.038" y="1.67" class="h">)</text></symbol><symbol id="a"><path fill="transparent" d="M0 0h165v62H0z"/></symbol><symbol id="b"><path fill="#6f7683" d="M0 0h1.102v2.171H0z"/></symbol></defs><path class="a" d="M0 0h165v134.602H0z"/><g style="animation-duration:19.406824s;animation-iteration-count:infinite;animation-name:m;animation-timing-function:steps(1,end)"><svg width="8250"><svg><use xlink:href="#a"/><use xlink:href="#b" x="-.004"/></svg><svg x="165"><use xlink:href="#a"/><use xlink:href="#b" x="-.004"/></svg><svg x="330"><use xlink:href="#a"/><use xlink:href="#b" x="20.996"/><use xlink:href="#1"/></svg><svg x="495"><use xlink:href="#a"/><use xlink:href="#b" x="20.996"/><use xlink:href="#1"/></svg><svg x="660"><use xlink:href="#a"/><use xlink:href="#b" x="21.996"/><text y="1.67" class="f">➜</text><text x="3.006" y="1.67" class="g">peitho</text><text x="10.02" y="1.67" class="h">git:(</text><text x="15.03" y="1.67" class="i">main</text><text x="19.038" y="1.67" class="h">)</text><text x="21.042" y="1.67" class="j">c</text></svg><svg x="825"><use xlink:href="#a"/><use xlink:href="#b" x="22.996"/><text y="1.67" class="f">➜</text><text x="3.006" y="1.67" class="g">peitho</text><text x="10.02" y="1.67" class="h">git:(</text><text x="15.03" y="1.67" class="i">main</text><text x="19.038" y="1.67" class="h">)</text><text x="21.042" y="1.67" class="j">ca</text></svg><svg x="990"><use xlink:href="#a"/><use xlink:href="#b" x="23.996"/><text y="1.67" class="f">➜</text><text x="3.006" y="1.67" class="g">peitho</text><text x="10.02" y="1.67" class="h">git:(</text><text x="15.03" y="1.67" class="i">main</text><text x="19.038" y="1.67" class="h">)</text><text x="21.042" y="1.67" class="j">car</text></svg><svg x="1155"><use xlink:href="#a"/><use xlink:href="#b" x="24.996"/><text y="1.67" class="f">➜</text><text x="3.006" y="1.67" class="g">peitho</text><text x="10.02" y="1.67" class="h">git:(</text><text x="15.03" y="1.67" class="i">main</text><text x="19.038" y="1.67" class="h">)</text><text x="21.042" y="1.67" class="j">carg</text></svg><svg x="1320"><use xlink:href="#a"/><use xlink:href="#b" x="25.996"/><use xlink:href="#2"/></svg><svg x="1485"><use xlink:href="#a"/><use xlink:href="#b" x="26.996"/><use xlink:href="#2"/></svg><svg x="1650"><use xlink:href="#a"/><use xlink:href="#b" x="27.996"/><text y="1.67" class="f">➜</text><text x="3.006" y="1.67" class="g">peitho</text><text x="10.02" y="1.67" class="h">git:(</text><text x="15.03" y="1.67" class="i">main</text><text x="19.038" y="1.67" class="h">)</text><text x="21.042" y="1.67" class="j">cargo</text><text x="27.054" y="1.67" class="j">r</text></svg><svg x="1815"><use xlink:href="#a"/><use xlink:href="#b" x="28.996"/><text y="1.67" class="f">➜</text><text x="3.006" y="1.67" class="g">peitho</text><text x="10.02" y="1.67" class="h">git:(</text><text x="15.03" y="1.67" class="i">main</text><text x="19.038" y="1.67" class="h">)</text><text x="21.042" y="1.67" class="j">cargo</text><text x="27.054" y="1.67" class="j">ru</text></svg><svg x="1980"><use xlink:href="#a"/><use xlink:href="#b" x="29.996"/><use xlink:href="#3"/></svg><svg x="2145"><use xlink:href="#a"/><use xlink:href="#b" x="29.996"/><use xlink:href="#3"/></svg><svg x="2310"><use xlink:href="#a"/><use xlink:href="#b" x="-.004" y="2.146"/><use xlink:href="#3"/></svg><svg x="2475"><use xlink:href="#a"/><use xlink:href="#b" x="-.004" y="2.146"/><use xlink:href="#3"/></svg><svg x="2640"><use xlink:href="#a"/><use xlink:href="#b" x="-.004" y="4.317"/><use xlink:href="#3"/><use xlink:href="#4" y="2.171"/></svg><svg x="2805"><use xlink:href="#a"/><use xlink:href="#b" x="12.996" y="4.317"/><use xlink:href="#3"/><use xlink:href="#4" y="2.171"/><text x="5.01" y="6.012" class="f">Running</text></svg><svg x="2970"><use xlink:href="#a"/><use xlink:href="#b" x="-.004" y="6.488"/><use xlink:href="#3"/><use xlink:href="#4" y="2.171"/><use xlink:href="#5" y="4.342"/></svg><svg x="3135"><use xlink:href="#a"/><use xlink:href="#b" x=".996" y="6.488"/><use xlink:href="#3"/><use xlink:href="#4" y="2.171"/><use xlink:href="#5" y="4.342"/><text y="8.183" class="j">h</text></svg><svg x="3300"><use xlink:href="#a"/><use xlink:href="#b" x="1.996" y="6.488"/><use xlink:href="#3"/><use xlink:href="#4" y="2.171"/><use xlink:href="#5" y="4.342"/><text y="8.183" class="j">he</text></svg><svg x="3465"><use xlink:href="#a"/><use xlink:href="#b" x="2.996" y="6.488"/><use xlink:href="#3"/><use xlink:href="#4" y="2.171"/><use xlink:href="#5" y="4.342"/><text y="8.183" class="j">hel</text></svg><svg x="3630"><use xlink:href="#a"/><use xlink:href="#b" x="3.996" y="6.488"/><use xlink:href="#3"/><use xlink:href="#4" y="2.171"/><use xlink:href="#5" y="4.342"/><text y="8.183" class="j">hell</text></svg><svg x="3795"><use xlink:href="#a"/><use xlink:href="#b" x="4.996" y="6.488"/><use xlink:href="#3"/><use xlink:href="#4" y="2.171"/><use xlink:href="#5" y="4.342"/><use xlink:href="#6" y="6.513"/></svg><svg x="3960"><use xlink:href="#a"/><use xlink:href="#b" x="-.004" y="8.659"/><use xlink:href="#3"/><use xlink:href="#4" y="2.171"/><use xlink:href="#5" y="4.342"/><use xlink:href="#6" y="6.513"/></svg><svg x="4125"><use xlink:href="#a"/><use xlink:href="#b" x="-.004" y="26.027"/><use xlink:href="#3"/><use xlink:href="#4" y="2.171"/><use xlink:href="#5" y="4.342"/><use xlink:href="#6" y="6.513"/><use xlink:href="#7" y="8.684"/><use xlink:href="#8" y="13.026"/><use xlink:href="#9" y="15.197"/><use xlink:href="#10" y="17.368"/><use xlink:href="#11" y="19.539"/><use xlink:href="#12" y="21.71"/><use xlink:href="#13" y="23.881"/></svg><svg x="4290"><use xlink:href="#a"/><use xlink:href="#b" x=".996" y="26.027"/><use xlink:href="#3"/><use xlink:href="#4" y="2.171"/><use xlink:href="#5" y="4.342"/><use xlink:href="#6" y="6.513"/><use xlink:href="#7" y="8.684"/><use xlink:href="#8" y="13.026"/><use xlink:href="#9" y="15.197"/><use xlink:href="#10" y="17.368"/><use xlink:href="#11" y="19.539"/><use xlink:href="#12" y="21.71"/><use xlink:href="#13" y="23.881"/><text y="27.722" class="j">p</text></svg><svg x="4455"><use xlink:href="#a"/><use xlink:href="#b" x="1.996" y="26.027"/><use xlink:href="#3"/><use xlink:href="#4" y="2.171"/><use xlink:href="#5" y="4.342"/><use xlink:href="#6" y="6.513"/><use xlink:href="#7" y="8.684"/><use xlink:href="#8" y="13.026"/><use xlink:href="#9" y="15.197"/><use xlink:href="#10" y="17.368"/><use xlink:href="#11" y="19.539"/><use xlink:href="#12" y="21.71"/><use xlink:href="#13" y="23.881"/><text y="27.722" class="j">pr</text></svg><svg x="4620"><use xlink:href="#a"/><use xlink:href="#b" x="2.996" y="26.027"/><use xlink:href="#3"/><use xlink:href="#4" y="2.171"/><use xlink:href="#5" y="4.342"/><use xlink:href="#6" y="6.513"/><use xlink:href="#7" y="8.684"/><use xlink:href="#8" y="13.026"/><use xlink:href="#9" y="15.197"/><use xlink:href="#10" y="17.368"/><use xlink:href="#11" y="19.539"/><use xlink:href="#12" y="21.71"/><use xlink:href="#13" y="23.881"/><text y="27.722" class="j">pri</text></svg><svg x="4785"><use xlink:href="#a"/><use xlink:href="#b" x="3.996" y="26.027"/><use xlink:href="#3"/><use xlink:href="#4" y="2.171"/><use xlink:href="#5" y="4.342"/><use xlink:href="#6" y="6.513"/><use xlink:href="#7" y="8.684"/><use xlink:href="#8" y="13.026"/><use xlink:href="#9" y="15.197"/><use xlink:href="#10" y="17.368"/><use xlink:href="#11" y="19.539"/><use xlink:href="#12" y="21.71"/><use xlink:href="#13" y="23.881"/><text y="27.722" class="j">prin</text></svg><svg x="4950"><use xlink:href="#a"/><use xlink:href="#b" x="4.996" y="26.027"/><use xlink:href="#3"/><use xlink:href="#4" y="2.171"/><use xlink:href="#5" y="4.342"/><use xlink:href="#6" y="6.513"/><use xlink:href="#7" y="8.684"/><use xlink:href="#8" y="13.026"/><use xlink:href="#9" y="15.197"/><use xlink:href="#10" y="17.368"/><use xlink:href="#11" y="19.539"/><use xlink:href="#12" y="21.71"/><use xlink:href="#13" y="23.881"/><use xlink:href="#14" y="26.052"/></svg><svg x="5115"><use xlink:href="#a"/><use xlink:href="#b" x="5.996" y="26.027"/><use xlink:href="#3"/><use xlink:href="#4" y="2.171"/><use xlink:href="#5" y="4.342"/><use xlink:href="#6" y="6.513"/><use xlink:href="#7" y="8.684"/><use xlink:href="#8" y="13.026"/><use xlink:href="#9" y="15.197"/><use xlink:href="#10" y="17.368"/><use xlink:href="#11" y="19.539"/><use xlink:href="#12" y="21.71"/><use xlink:href="#13" y="23.881"/><use xlink:href="#14" y="26.052"/></svg><svg x="5280"><use xlink:href="#a"/><use xlink:href="#b" x="6.996" y="26.027"/><use xlink:href="#3"/><use xlink:href="#4" y="2.171"/><use xlink:href="#5" y="4.342"/><use xlink:href="#6" y="6.513"/><use xlink:href="#7" y="8.684"/><use xlink:href="#8" y="13.026"/><use xlink:href="#9" y="15.197"/><use xlink:href="#10" y="17.368"/><use xlink:href="#11" y="19.539"/><use xlink:href="#12" y="21.71"/><use xlink:href="#13" y="23.881"/><text y="27.722" class="j">print</text><text x="6.012" y="27.722" class="j">&quot;</text></svg><svg x="5445"><use xlink:href="#a"/><use xlink:href="#b" x="7.996" y="26.027"/><use xlink:href="#3"/><use xlink:href="#4" y="2.171"/><use xlink:href="#5" y="4.342"/><use xlink:href="#6" y="6.513"/><use xlink:href="#7" y="8.684"/><use xlink:href="#8" y="13.026"/><use xlink:href="#9" y="15.197"/><use xlink:href="#10" y="17.368"/><use xlink:href="#11" y="19.539"/><use xlink:href="#12" y="21.71"/><use xlink:href="#13" y="23.881"/><text y="27.722" class="j">print</text><text x="6.012" y="27.722" class="j">&quot;h</text></svg><svg x="5610"><use xlink:href="#a"/><use xlink:href="#b" x="8.996" y="26.027"/><use xlink:href="#3"/><use xlink:href="#4" y="2.171"/><use xlink:href="#5" y="4.342"/><use xlink:href="#6" y="6.513"/><use xlink:href="#7" y="8.684"/><use xlink:href="#8" y="13.026"/><use xlink:href="#9" y="15.197"/><use xlink:href="#10" y="17.368"/><use xlink:href="#11" y="19.539"/><use xlink:href="#12" y="21.71"/><use xlink:href="#13" y="23.881"/><text y="27.722" class="j">print</text><text x="6.012" y="27.722" class="j">&quot;he</text></svg><svg x="5775"><use xlink:href="#a"/><use xlink:href="#b" x="9.996" y="26.027"/><use xlink:href="#3"/><use xlink:href="#4" y="2.171"/><use xlink:href="#5" y="4.342"/><use xlink:href="#6" y="6.513"/><use xlink:href="#7" y="8.684"/><use xlink:href="#8" y="13.026"/><use xlink:href="#9" y="15.197"/><use xlink:href="#10" y="17.368"/><use xlink:href="#11" y="19.539"/><use xlink:href="#12" y="21.71"/><use xlink:href="#13" y="23.881"/><text y="27.722" class="j">print</text><text x="6.012" y="27.722" class="j">&quot;hel</text></svg><svg x="5940"><use xlink:href="#a"/><use xlink:href="#b" x="10.996" y="26.027"/><use xlink:href="#3"/><use xlink:href="#4" y="2.171"/><use xlink:href="#5" y="4.342"/><use xlink:href="#6" y="6.513"/><use xlink:href="#7" y="8.684"/><use xlink:href="#8" y="13.026"/><use xlink:href="#9" y="15.197"/><use xlink:href="#10" y="17.368"/><use xlink:href="#11" y="19.539"/><use xlink:href="#12" y="21.71"/><use xlink:href="#13" y="23.881"/><text y="27.722" class="j">print</text><text x="6.012" y="27.722" class="j">&quot;hell</text></svg><svg x="6105"><use xlink:href="#a"/><use xlink:href="#b" x="11.996" y="26.027"/><use xlink:href="#3"/><use xlink:href="#4" y="2.171"/><use xlink:href="#5" y="4.342"/><use xlink:href="#6" y="6.513"/><use xlink:href="#7" y="8.684"/><use xlink:href="#8" y="13.026"/><use xlink:href="#9" y="15.197"/><use xlink:href="#10" y="17.368"/><use xlink:href="#11" y="19.539"/><use xlink:href="#12" y="21.71"/><use xlink:href="#13" y="23.881"/><text y="27.722" class="j">print</text><text x="6.012" y="27.722" class="j">&quot;hello</text></svg><svg x="6270"><use xlink:href="#a"/><use xlink:href="#b" x="12.996" y="26.027"/><use xlink:href="#3"/><use xlink:href="#4" y="2.171"/><use xlink:href="#5" y="4.342"/><use xlink:href="#6" y="6.513"/><use xlink:href="#7" y="8.684"/><use xlink:href="#8" y="13.026"/><use xlink:href="#9" y="15.197"/><use xlink:href="#10" y="17.368"/><use xlink:href="#11" y="19.539"/><use xlink:href="#12" y="21.71"/><use xlink:href="#13" y="23.881"/><use xlink:href="#15" y="26.052"/></svg><svg x="6435"><use xlink:href="#a"/><use xlink:href="#b" x="-.004" y="28.198"/><use xlink:href="#3"/><use xlink:href="#4" y="2.171"/><use xlink:href="#5" y="4.342"/><use xlink:href="#6" y="6.513"/><use xlink:href="#7" y="8.684"/><use xlink:href="#8" y="13.026"/><use xlink:href="#9" y="15.197"/><use xlink:href="#10" y="17.368"/><use xlink:href="#11" y="19.539"/><use xlink:href="#12" y="21.71"/><use xlink:href="#13" y="23.881"/><use xlink:href="#15" y="26.052"/></svg><svg x="6600"><use xlink:href="#a"/><use xlink:href="#b" x="-.004" y="45.566"/><use xlink:href="#3"/><use xlink:href="#4" y="2.171"/><use xlink:href="#5" y="4.342"/><use xlink:href="#6" y="6.513"/><use xlink:href="#7" y="8.684"/><use xlink:href="#8" y="13.026"/><use xlink:href="#9" y="15.197"/><use xlink:href="#10" y="17.368"/><use xlink:href="#11" y="19.539"/><use xlink:href="#12" y="21.71"/><use xlink:href="#13" y="23.881"/><use xlink:href="#15" y="26.052"/><use xlink:href="#16" y="28.223"/><use xlink:href="#17" y="32.565"/><use xlink:href="#18" y="34.736"/><use xlink:href="#19" y="36.907"/><use xlink:href="#20" y="39.078"/><use xlink:href="#21" y="41.249"/><use xlink:href="#22" y="43.42"/></svg><svg x="6765"><use xlink:href="#a"/><use xlink:href="#b" x="-.004" y="49.908"/><use xlink:href="#3"/><use xlink:href="#4" y="2.171"/><use xlink:href="#5" y="4.342"/><use xlink:href="#6" y="6.513"/><use xlink:href="#7" y="8.684"/><use xlink:href="#8" y="13.026"/><use xlink:href="#9" y="15.197"/><use xlink:href="#10" y="17.368"/><use xlink:href="#11" y="19.539"/><use xlink:href="#12" y="21.71"/><use xlink:href="#13" y="23.881"/><use xlink:href="#15" y="26.052"/><use xlink:href="#16" y="28.223"/><use xlink:href="#17" y="32.565"/><use xlink:href="#18" y="34.736"/><use xlink:href="#19" y="36.907"/><use xlink:href="#20" y="39.078"/><use xlink:href="#21" y="41.249"/><use xlink:href="#22" y="43.42"/><use xlink:href="#23" y="45.591"/></svg><svg x="6930"><use xlink:href="#a"/><use xlink:href="#b" x="-.004" y="54.25"/><use xlink:href="#3"/><use xlink:href="#4" y="2.171"/><use xlink:href="#5" y="4.342"/><use xlink:href="#6" y="6.513"/><use xlink:href="#7" y="8.684"/><use xlink:href="#8" y="13.026"/><use xlink:href="#9" y="15.197"/><use xlink:href="#10" y="17.368"/><use xlink:href="#11" y="19.539"/><use xlink:href="#12" y="21.71"/><use xlink:href="#13" y="23.881"/><use xlink:href="#15" y="26.052"/><use xlink:href="#16" y="28.223"/><use xlink:href="#17" y="32.565"/><use xlink:href="#18" y="34.736"/><use xlink:href="#19" y="36.907"/><use xlink:href="#20" y="39.078"/><use xlink:href="#21" y="41.249"/><use xlink:href="#22" y="43.42"/><use xlink:href="#23" y="45.591"/><use xlink:href="#24" y="49.933"/><use xlink:href="#25" y="52.104"/></svg><svg x="7095"><use xlink:href="#a"/><use xlink:href="#b" x="1.996" y="54.25"/><use xlink:href="#3"/><use xlink:href="#4" y="2.171"/><use xlink:href="#5" y="4.342"/><use xlink:href="#6" y="6.513"/><use xlink:href="#7" y="8.684"/><use xlink:href="#8" y="13.026"/><use xlink:href="#9" y="15.197"/><use xlink:href="#10" y="17.368"/><use xlink:href="#11" y="19.539"/><use xlink:href="#12" y="21.71"/><use xlink:href="#13" y="23.881"/><use xlink:href="#15" y="26.052"/><use xlink:href="#16" y="28.223"/><use xlink:href="#17" y="32.565"/><use xlink:href="#18" y="34.736"/><use xlink:href="#19" y="36.907"/><use xlink:href="#20" y="39.078"/><use xlink:href="#21" y="41.249"/><use xlink:href="#22" y="43.42"/><use xlink:href="#23" y="45.591"/><use xlink:href="#24" y="49.933"/><use xlink:href="#25" y="52.104"/><use xlink:href="#26" y="54.275"/></svg><svg x="7260"><use xlink:href="#a"/><use xlink:href="#b" x="-.004" y="56.421"/><use xlink:href="#3"/><use xlink:href="#4" y="2.171"/><use xlink:href="#5" y="4.342"/><use xlink:href="#6" y="6.513"/><use xlink:href="#7" y="8.684"/><use xlink:href="#8" y="13.026"/><use xlink:href="#9" y="15.197"/><use xlink:href="#10" y="17.368"/><use xlink:href="#11" y="19.539"/><use xlink:href="#12" y="21.71"/><use xlink:href="#13" y="23.881"/><use xlink:href="#15" y="26.052"/><use xlink:href="#16" y="28.223"/><use xlink:href="#17" y="32.565"/><use xlink:href="#18" y="34.736"/><use xlink:href="#19" y="36.907"/><use xlink:href="#20" y="39.078"/><use xlink:href="#21" y="41.249"/><use xlink:href="#22" y="43.42"/><use xlink:href="#23" y="45.591"/><use xlink:href="#24" y="49.933"/><use xlink:href="#25" y="52.104"/><use xlink:href="#26" y="54.275"/></svg><svg x="7425"><use xlink:href="#a"/><use xlink:href="#b" x="-.004" y="56.421"/><use xlink:href="#3"/><use xlink:href="#4" y="2.171"/><use xlink:href="#5" y="4.342"/><use xlink:href="#6" y="6.513"/><use xlink:href="#7" y="8.684"/><use xlink:href="#8" y="13.026"/><use xlink:href="#9" y="15.197"/><use xlink:href="#10" y="17.368"/><use xlink:href="#11" y="19.539"/><use xlink:href="#12" y="21.71"/><use xlink:href="#13" y="23.881"/><use xlink:href="#15" y="26.052"/><use xlink:href="#16" y="28.223"/><use xlink:href="#17" y="32.565"/><use xlink:href="#18" y="34.736"/><use xlink:href="#19" y="36.907"/><use xlink:href="#20" y="39.078"/><use xlink:href="#21" y="41.249"/><use xlink:href="#22" y="43.42"/><use xlink:href="#23" y="45.591"/><use xlink:href="#24" y="49.933"/><use xlink:href="#25" y="52.104"/><use xlink:href="#26" y="54.275"/></svg><svg x="7590"><use xlink:href="#a"/><use xlink:href="#b" x="-.004" y="56.421"/><use xlink:href="#3"/><use xlink:href="#4" y="2.171"/><use xlink:href="#5" y="4.342"/><use xlink:href="#6" y="6.513"/><use xlink:href="#7" y="8.684"/><use xlink:href="#8" y="13.026"/><use xlink:href="#9" y="15.197"/><use xlink:href="#10" y="17.368"/><use xlink:href="#11" y="19.539"/><use xlink:href="#12" y="21.71"/><use xlink:href="#13" y="23.881"/><use xlink:href="#15" y="26.052"/><use xlink:href="#16" y="28.223"/><use xlink:href="#17" y="32.565"/><use xlink:href="#18" y="34.736"/><use xlink:href="#19" y="36.907"/><use xlink:href="#20" y="39.078"/><use xlink:href="#21" y="41.249"/><use xlink:href="#22" y="43.42"/><use xlink:href="#23" y="45.591"/><use xlink:href="#24" y="49.933"/><use xlink:href="#25" y="52.104"/><use xlink:href="#26" y="54.275"/></svg><svg x="7755"><use xlink:href="#a"/><use xlink:href="#b" x="20.996" y="56.421"/><use xlink:href="#3"/><use xlink:href="#4" y="2.171"/><use xlink:href="#5" y="4.342"/><use xlink:href="#6" y="6.513"/><use xlink:href="#7" y="8.684"/><use xlink:href="#8" y="13.026"/><use xlink:href="#9" y="15.197"/><use xlink:href="#10" y="17.368"/><use xlink:href="#11" y="19.539"/><use xlink:href="#12" y="21.71"/><use xlink:href="#13" y="23.881"/><use xlink:href="#15" y="26.052"/><use xlink:href="#16" y="28.223"/><use xlink:href="#17" y="32.565"/><use xlink:href="#18" y="34.736"/><use xlink:href="#19" y="36.907"/><use xlink:href="#20" y="39.078"/><use xlink:href="#21" y="41.249"/><use xlink:href="#22" y="43.42"/><use xlink:href="#23" y="45.591"/><use xlink:href="#24" y="49.933"/><use xlink:href="#25" y="52.104"/><use xlink:href="#26" y="54.275"/><use xlink:href="#27" y="56.446"/></svg><svg x="7920"><use xlink:href="#a"/><use xlink:href="#b" x="20.996" y="56.421"/><use xlink:href="#3"/><use xlink:href="#4" y="2.171"/><use xlink:href="#5" y="4.342"/><use xlink:href="#6" y="6.513"/><use xlink:href="#7" y="8.684"/><use xlink:href="#8" y="13.026"/><use xlink:href="#9" y="15.197"/><use xlink:href="#10" y="17.368"/><use xlink:href="#11" y="19.539"/><use xlink:href="#12" y="21.71"/><use xlink:href="#13" y="23.881"/><use xlink:href="#15" y="26.052"/><use xlink:href="#16" y="28.223"/><use xlink:href="#17" y="32.565"/><use xlink:href="#18" y="34.736"/><use xlink:href="#19" y="36.907"/><use xlink:href="#20" y="39.078"/><use xlink:href="#21" y="41.249"/><use xlink:href="#22" y="43.42"/><use xlink:href="#23" y="45.591"/><use xlink:href="#24" y="49.933"/><use xlink:href="#25" y="52.104"/><use xlink:href="#26" y="54.275"/><use xlink:href="#27" y="56.446"/></svg><svg x="8085"><use xlink:href="#a"/><use xlink:href="#b" x="-.004" y="58.592"/><use xlink:href="#3"/><use xlink:href="#4" y="2.171"/><use xlink:href="#5" y="4.342"/><use xlink:href="#6" y="6.513"/><use xlink:href="#7" y="8.684"/><use xlink:href="#8" y="13.026"/><use xlink:href="#9" y="15.197"/><use xlink:href="#10" y="17.368"/><use xlink:href="#11" y="19.539"/><use xlink:href="#12" y="21.71"/><use xlink:href="#13" y="23.881"/><use xlink:href="#15" y="26.052"/><use xlink:href="#16" y="28.223"/><use xlink:href="#17" y="32.565"/><use xlink:href="#18" y="34.736"/><use xlink:href="#19" y="36.907"/><use xlink:href="#20" y="39.078"/><use xlink:href="#21" y="41.249"/><use xlink:href="#22" y="43.42"/><use xlink:href="#23" y="45.591"/><use xlink:href="#24" y="49.933"/><use xlink:href="#25" y="52.104"/><use xlink:href="#26" y="54.275"/><use xlink:href="#27" y="56.446"/></svg></svg></g></g></svg></svg>
