<svg xmlns="http://www.w3.org/2000/svg" xmlns:xlink="http://www.w3.org/1999/xlink" width="920" height="472.49"><rect width="920" height="472.49" rx="5" ry="5" class="a"/><svg y="0%" x="0%"><circle cx="20" cy="20" r="6" fill="#ff5f58"/><circle cx="40" cy="20" r="6" fill="#ffbd2e"/><circle cx="60" cy="20" r="6" fill="#18c132"/></svg><svg height="412.49" viewBox="0 0 88 41.249" width="880" x="15" xmlns="http://www.w3.org/2000/svg" xmlns:xlink="http://www.w3.org/1999/xlink" y="50"><style>@keyframes m{0%{transform:translateX(0)}5.3%{transform:translateX(-88px)}5.56%{transform:translateX(-264px)}9.82%{transform:translateX(-352px)}11.38%{transform:translateX(-440px)}13.01%{transform:translateX(-528px)}14.45%{transform:translateX(-616px)}16.59%{transform:translateX(-704px)}18.02%{transform:translateX(-792px)}18.7%{transform:translateX(-880px)}19.33%{transform:translateX(-968px)}20.53%{transform:translateX(-1056px)}22.28%{transform:translateX(-1232px)}22.31%{transform:translateX(-1320px)}22.98%{transform:translateX(-1408px)}22.99%{transform:translateX(-1496px)}28.72%{transform:translateX(-1584px)}30.41%{transform:translateX(-1672px)}33.98%{transform:translateX(-1760px)}37.37%{transform:translateX(-1936px)}45.99%{transform:translateX(-2024px)}47.81%{transform:translateX(-2112px)}49.19%{transform:translateX(-2200px)}50.44%{transform:translateX(-2288px)}52.32%{transform:translateX(-2376px)}55.78%{transform:translateX(-2464px)}58.77%{transform:translateX(-2552px)}61.14%{transform:translateX(-2640px)}62.26%{transform:translateX(-2728px)}63.7%{transform:translateX(-2816px)}64.45%{transform:translateX(-2904px)}65.64%{transform:translateX(-2992px)}67.27%{transform:translateX(-3080px)}68.27%{transform:translateX(-3168px)}69.03%{transform:translateX(-3256px)}69.65%{transform:translateX(-3344px)}70.34%{transform:translateX(-3432px)}70.91%{transform:translateX(-3520px)}73.03%{transform:translateX(-3608px)}75.03%{transform:translateX(-3960px)}96%{transform:translateX(-4312px)}96.31%{transform:translateX(-4488px)}to{transform:translateX(-4576px)}}.a{fill:#282d35}.f{fill:#a8cc8c;white-space:pre}.f,.g,.h{font-weight:700}.g{fill:#66c2cd;white-space:pre}.h{fill:#71bef2}.h,.i,.j{white-space:pre}.i{fill:#e88388;font-weight:700}.j{fill:#b9c0cb}</style><g font-family="Monaco,Consolas,Menlo,'Bitstream Vera Sans Mono','Powerline Symbols',monospace" font-size="1.67"><defs><symbol id="1"><text y="1.67" class="f">➜</text><text x="3.006" y="1.67" class="g">peitho</text><text x="10.02" y="1.67" class="h">git:(</text><text x="15.03" y="1.67" class="i">main</text><text x="19.038" y="1.67" class="h">)</text></symbol><symbol id="2"><text y="1.67" class="f">➜</text><text x="3.006" y="1.67" class="g">peitho</text><text x="10.02" y="1.67" class="h">git:(</text><text x="15.03" y="1.67" class="i">main</text><text x="19.038" y="1.67" class="h">)</text><text x="21.042" y="1.67" class="j">cargo</text></symbol><symbol id="3"><text y="1.67" class="f">➜</text><text x="3.006" y="1.67" class="g">peitho</text><text x="10.02" y="1.67" class="h">git:(</text><text x="15.03" y="1.67" class="i">main</text><text x="19.038" y="1.67" class="h">)</text><text x="21.042" y="1.67" class="j">cargo</text><text x="27.054" y="1.67" class="j">run</text></symbol><symbol id="4"><text x="4.008" y="1.67" class="f">Finished</text><text x="13.026" y="1.67" class="j">dev</text><text x="17.034" y="1.67" class="j">[unoptimized</text><text x="30.06" y="1.67" class="j">+</text><text x="32.064" y="1.67" class="j">debuginfo]</text><text x="43.086" y="1.67" class="j">target(s)</text><text x="53.106" y="1.67" class="j">in</text><text x="56.112" y="1.67" class="j">0.01s</text></symbol><symbol id="5"><text x="5.01" y="1.67" class="f">Running</text><text x="13.026" y="1.67" class="j">`target/debug/peitho`</text></symbol><symbol id="6"><text y="1.67" class="j">hi?</text></symbol><symbol id="7"><text y="1.67" class="j">&gt;</text><text x="2.004" y="1.67" class="j">scanning...</text><text x="14.028" y="1.67" class="j">hi?</text></symbol><symbol id="8"><text y="1.67" class="j">currently</text><text x="10.02" y="1.67" class="j">evaluating:</text><text x="22.044" y="1.67" class="j">h</text></symbol><symbol id="9"><text y="1.67" class="j">building...</text><text x="12.024" y="1.67" class="j">hi</text></symbol><symbol id="10"><text y="1.67" class="j">[1]</text><text x="4.008" y="1.67" class="j">Error</text><text x="10.02" y="1.67" class="j">:</text><text x="12.024" y="1.67" class="j">Unrecognized</text><text x="25.05" y="1.67" class="j">keyword:</text><text x="34.068" y="1.67" class="j">hi</text></symbol><symbol id="11"><text y="1.67" class="j">print</text></symbol><symbol id="12"><text y="1.67" class="j">print</text><text x="6.012" y="1.67" class="j">&quot;hello</text></symbol><symbol id="13"><text y="1.67" class="j">print</text><text x="6.012" y="1.67" class="j">&quot;hello</text><text x="13.026" y="1.67" class="j">world&quot;</text></symbol><symbol id="14"><text y="1.67" class="j">&gt;</text><text x="2.004" y="1.67" class="j">scanning...</text><text x="14.028" y="1.67" class="j">print</text><text x="20.04" y="1.67" class="j">&quot;hello</text><text x="27.054" y="1.67" class="j">world&quot;</text></symbol><symbol id="15"><text y="1.67" class="j">currently</text><text x="10.02" y="1.67" class="j">evaluating:</text><text x="22.044" y="1.67" class="j">p</text></symbol><symbol id="16"><text y="1.67" class="j">building...</text><text x="12.024" y="1.67" class="j">pr</text></symbol><symbol id="17"><text y="1.67" class="j">building...</text><text x="12.024" y="1.67" class="j">pri</text></symbol><symbol id="18"><text y="1.67" class="j">building...</text><text x="12.024" y="1.67" class="j">prin</text></symbol><symbol id="19"><text y="1.67" class="j">building...</text><text x="12.024" y="1.67" class="j">print</text></symbol><symbol id="20"><text y="1.67" class="j">currently</text><text x="10.02" y="1.67" class="j">evaluating:</text><text x="22.044" y="1.67" class="j">&quot;</text></symbol><symbol id="21"><text y="1.67" class="j">currently</text><text x="10.02" y="1.67" class="j">evaluating:</text></symbol><symbol id="22"><text y="1.67" class="j">Token</text><text x="6.012" y="1.67" class="j">{</text><text x="8.016" y="1.67" class="j">token_type:</text><text x="20.04" y="1.67" class="j">PRINT,</text><text x="27.054" y="1.67" class="j">lexeme:</text><text x="35.07" y="1.67" class="j">&quot;print&quot;,</text><text x="44.088" y="1.67" class="j">literal:</text><text x="53.106" y="1.67" class="j">&quot;print&quot;,</text><text x="62.124" y="1.67" class="j">line:</text><text x="68.136" y="1.67" class="j">1</text><text x="70.14" y="1.67" class="j">}</text></symbol><symbol id="23"><text y="1.67" class="j">Token</text><text x="6.012" y="1.67" class="j">{</text><text x="8.016" y="1.67" class="j">token_type:</text><text x="20.04" y="1.67" class="j">STRING,</text><text x="28.056" y="1.67" class="j">lexeme:</text><text x="36.072" y="1.67" class="j">&quot;hello</text><text x="43.086" y="1.67" class="j">world&quot;,</text><text x="51.102" y="1.67" class="j">literal:</text><text x="60.12" y="1.67" class="j">&quot;hello</text><text x="67.134" y="1.67" class="j">world&quot;,</text><text x="75.15" y="1.67" class="j">line:</text><text x="81.162" y="1.67" class="j">1</text><text x="83.166" y="1.67" class="j">}</text></symbol><symbol id="24"><text y="1.67" class="j">^C</text></symbol><symbol id="25"><text y="1.67" class="i">➜</text><text x="3.006" y="1.67" class="g">peitho</text><text x="10.02" y="1.67" class="h">git:(</text><text x="15.03" y="1.67" class="i">main</text><text x="19.038" y="1.67" class="h">)</text></symbol><symbol id="a"><path fill="transparent" d="M0 0h88v19H0z"/></symbol><symbol id="b"><path fill="#6f7683" d="M0 0h1.102v2.171H0z"/></symbol></defs><path class="a" d="M0 0h88v41.249H0z"/><g style="animation-duration:17.977209s;animation-iteration-count:infinite;animation-name:m;animation-timing-function:steps(1,end)"><svg width="4664"><svg><use xlink:href="#a"/><use xlink:href="#b" x="-.004"/></svg><svg x="88"><use xlink:href="#a"/><use xlink:href="#b" x="-.004"/></svg><svg x="176"><use xlink:href="#a"/><use xlink:href="#b" x="20.996"/><use xlink:href="#1"/></svg><svg x="264"><use xlink:href="#a"/><use xlink:href="#b" x="20.996"/><use xlink:href="#1"/></svg><svg x="352"><use xlink:href="#a"/><use xlink:href="#b" x="21.996"/><text y="1.67" class="f">➜</text><text x="3.006" y="1.67" class="g">peitho</text><text x="10.02" y="1.67" class="h">git:(</text><text x="15.03" y="1.67" class="i">main</text><text x="19.038" y="1.67" class="h">)</text><text x="21.042" y="1.67" class="j">c</text></svg><svg x="440"><use xlink:href="#a"/><use xlink:href="#b" x="22.996"/><text y="1.67" class="f">➜</text><text x="3.006" y="1.67" class="g">peitho</text><text x="10.02" y="1.67" class="h">git:(</text><text x="15.03" y="1.67" class="i">main</text><text x="19.038" y="1.67" class="h">)</text><text x="21.042" y="1.67" class="j">ca</text></svg><svg x="528"><use xlink:href="#a"/><use xlink:href="#b" x="23.996"/><text y="1.67" class="f">➜</text><text x="3.006" y="1.67" class="g">peitho</text><text x="10.02" y="1.67" class="h">git:(</text><text x="15.03" y="1.67" class="i">main</text><text x="19.038" y="1.67" class="h">)</text><text x="21.042" y="1.67" class="j">car</text></svg><svg x="616"><use xlink:href="#a"/><use xlink:href="#b" x="24.996"/><text y="1.67" class="f">➜</text><text x="3.006" y="1.67" class="g">peitho</text><text x="10.02" y="1.67" class="h">git:(</text><text x="15.03" y="1.67" class="i">main</text><text x="19.038" y="1.67" class="h">)</text><text x="21.042" y="1.67" class="j">carg</text></svg><svg x="704"><use xlink:href="#a"/><use xlink:href="#b" x="25.996"/><use xlink:href="#2"/></svg><svg x="792"><use xlink:href="#a"/><use xlink:href="#b" x="26.996"/><use xlink:href="#2"/></svg><svg x="880"><use xlink:href="#a"/><use xlink:href="#b" x="27.996"/><text y="1.67" class="f">➜</text><text x="3.006" y="1.67" class="g">peitho</text><text x="10.02" y="1.67" class="h">git:(</text><text x="15.03" y="1.67" class="i">main</text><text x="19.038" y="1.67" class="h">)</text><text x="21.042" y="1.67" class="j">cargo</text><text x="27.054" y="1.67" class="j">r</text></svg><svg x="968"><use xlink:href="#a"/><use xlink:href="#b" x="28.996"/><text y="1.67" class="f">➜</text><text x="3.006" y="1.67" class="g">peitho</text><text x="10.02" y="1.67" class="h">git:(</text><text x="15.03" y="1.67" class="i">main</text><text x="19.038" y="1.67" class="h">)</text><text x="21.042" y="1.67" class="j">cargo</text><text x="27.054" y="1.67" class="j">ru</text></svg><svg x="1056"><use xlink:href="#a"/><use xlink:href="#b" x="29.996"/><use xlink:href="#3"/></svg><svg x="1144"><use xlink:href="#a"/><use xlink:href="#b" x="29.996"/><use xlink:href="#3"/></svg><svg x="1232"><use xlink:href="#a"/><use xlink:href="#b" x="-.004" y="2.146"/><use xlink:href="#3"/></svg><svg x="1320"><use xlink:href="#a"/><use xlink:href="#b" x="-.004" y="2.146"/><use xlink:href="#3"/></svg><svg x="1408"><use xlink:href="#a"/><use xlink:href="#b" x="-.004" y="4.317"/><use xlink:href="#3"/><use xlink:href="#4" y="2.171"/></svg><svg x="1496"><use xlink:href="#a"/><use xlink:href="#b" x="-.004" y="6.488"/><use xlink:href="#3"/><use xlink:href="#4" y="2.171"/><use xlink:href="#5" y="4.342"/></svg><svg x="1584"><use xlink:href="#a"/><use xlink:href="#b" x=".996" y="6.488"/><use xlink:href="#3"/><use xlink:href="#4" y="2.171"/><use xlink:href="#5" y="4.342"/><text y="8.183" class="j">h</text></svg><svg x="1672"><use xlink:href="#a"/><use xlink:href="#b" x="1.996" y="6.488"/><use xlink:href="#3"/><use xlink:href="#4" y="2.171"/><use xlink:href="#5" y="4.342"/><text y="8.183" class="j">hi</text></svg><svg x="1760"><use xlink:href="#a"/><use xlink:href="#b" x="2.996" y="6.488"/><use xlink:href="#3"/><use xlink:href="#4" y="2.171"/><use xlink:href="#5" y="4.342"/><use xlink:href="#6" y="6.513"/></svg><svg x="1848"><use xlink:href="#a"/><use xlink:href="#b" x="-.004" y="8.659"/><use xlink:href="#3"/><use xlink:href="#4" y="2.171"/><use xlink:href="#5" y="4.342"/><use xlink:href="#6" y="6.513"/></svg><svg x="1936"><use xlink:href="#a"/><use xlink:href="#b" x="-.004" y="19.514"/><use xlink:href="#3"/><use xlink:href="#4" y="2.171"/><use xlink:href="#5" y="4.342"/><use xlink:href="#6" y="6.513"/><use xlink:href="#7" y="8.684"/><use xlink:href="#8" y="13.026"/><use xlink:href="#9" y="15.197"/><use xlink:href="#10" y="17.368"/></svg><svg x="2024"><use xlink:href="#a"/><use xlink:href="#b" x=".996" y="19.514"/><use xlink:href="#3"/><use xlink:href="#4" y="2.171"/><use xlink:href="#5" y="4.342"/><use xlink:href="#6" y="6.513"/><use xlink:href="#7" y="8.684"/><use xlink:href="#8" y="13.026"/><use xlink:href="#9" y="15.197"/><use xlink:href="#10" y="17.368"/><text y="21.209" class="j">p</text></svg><svg x="2112"><use xlink:href="#a"/><use xlink:href="#b" x="1.996" y="19.514"/><use xlink:href="#3"/><use xlink:href="#4" y="2.171"/><use xlink:href="#5" y="4.342"/><use xlink:href="#6" y="6.513"/><use xlink:href="#7" y="8.684"/><use xlink:href="#8" y="13.026"/><use xlink:href="#9" y="15.197"/><use xlink:href="#10" y="17.368"/><text y="21.209" class="j">pr</text></svg><svg x="2200"><use xlink:href="#a"/><use xlink:href="#b" x="2.996" y="19.514"/><use xlink:href="#3"/><use xlink:href="#4" y="2.171"/><use xlink:href="#5" y="4.342"/><use xlink:href="#6" y="6.513"/><use xlink:href="#7" y="8.684"/><use xlink:href="#8" y="13.026"/><use xlink:href="#9" y="15.197"/><use xlink:href="#10" y="17.368"/><text y="21.209" class="j">pri</text></svg><svg x="2288"><use xlink:href="#a"/><use xlink:href="#b" x="3.996" y="19.514"/><use xlink:href="#3"/><use xlink:href="#4" y="2.171"/><use xlink:href="#5" y="4.342"/><use xlink:href="#6" y="6.513"/><use xlink:href="#7" y="8.684"/><use xlink:href="#8" y="13.026"/><use xlink:href="#9" y="15.197"/><use xlink:href="#10" y="17.368"/><text y="21.209" class="j">prin</text></svg><svg x="2376"><use xlink:href="#a"/><use xlink:href="#b" x="4.996" y="19.514"/><use xlink:href="#3"/><use xlink:href="#4" y="2.171"/><use xlink:href="#5" y="4.342"/><use xlink:href="#6" y="6.513"/><use xlink:href="#7" y="8.684"/><use xlink:href="#8" y="13.026"/><use xlink:href="#9" y="15.197"/><use xlink:href="#10" y="17.368"/><use xlink:href="#11" y="19.539"/></svg><svg x="2464"><use xlink:href="#a"/><use xlink:href="#b" x="5.996" y="19.514"/><use xlink:href="#3"/><use xlink:href="#4" y="2.171"/><use xlink:href="#5" y="4.342"/><use xlink:href="#6" y="6.513"/><use xlink:href="#7" y="8.684"/><use xlink:href="#8" y="13.026"/><use xlink:href="#9" y="15.197"/><use xlink:href="#10" y="17.368"/><use xlink:href="#11" y="19.539"/></svg><svg x="2552"><use xlink:href="#a"/><use xlink:href="#b" x="6.996" y="19.514"/><use xlink:href="#3"/><use xlink:href="#4" y="2.171"/><use xlink:href="#5" y="4.342"/><use xlink:href="#6" y="6.513"/><use xlink:href="#7" y="8.684"/><use xlink:href="#8" y="13.026"/><use xlink:href="#9" y="15.197"/><use xlink:href="#10" y="17.368"/><text y="21.209" class="j">print</text><text x="6.012" y="21.209" class="j">&quot;</text></svg><svg x="2640"><use xlink:href="#a"/><use xlink:href="#b" x="7.996" y="19.514"/><use xlink:href="#3"/><use xlink:href="#4" y="2.171"/><use xlink:href="#5" y="4.342"/><use xlink:href="#6" y="6.513"/><use xlink:href="#7" y="8.684"/><use xlink:href="#8" y="13.026"/><use xlink:href="#9" y="15.197"/><use xlink:href="#10" y="17.368"/><text y="21.209" class="j">print</text><text x="6.012" y="21.209" class="j">&quot;h</text></svg><svg x="2728"><use xlink:href="#a"/><use xlink:href="#b" x="8.996" y="19.514"/><use xlink:href="#3"/><use xlink:href="#4" y="2.171"/><use xlink:href="#5" y="4.342"/><use xlink:href="#6" y="6.513"/><use xlink:href="#7" y="8.684"/><use xlink:href="#8" y="13.026"/><use xlink:href="#9" y="15.197"/><use xlink:href="#10" y="17.368"/><text y="21.209" class="j">print</text><text x="6.012" y="21.209" class="j">&quot;he</text></svg><svg x="2816"><use xlink:href="#a"/><use xlink:href="#b" x="9.996" y="19.514"/><use xlink:href="#3"/><use xlink:href="#4" y="2.171"/><use xlink:href="#5" y="4.342"/><use xlink:href="#6" y="6.513"/><use xlink:href="#7" y="8.684"/><use xlink:href="#8" y="13.026"/><use xlink:href="#9" y="15.197"/><use xlink:href="#10" y="17.368"/><text y="21.209" class="j">print</text><text x="6.012" y="21.209" class="j">&quot;hel</text></svg><svg x="2904"><use xlink:href="#a"/><use xlink:href="#b" x="10.996" y="19.514"/><use xlink:href="#3"/><use xlink:href="#4" y="2.171"/><use xlink:href="#5" y="4.342"/><use xlink:href="#6" y="6.513"/><use xlink:href="#7" y="8.684"/><use xlink:href="#8" y="13.026"/><use xlink:href="#9" y="15.197"/><use xlink:href="#10" y="17.368"/><text y="21.209" class="j">print</text><text x="6.012" y="21.209" class="j">&quot;hell</text></svg><svg x="2992"><use xlink:href="#a"/><use xlink:href="#b" x="11.996" y="19.514"/><use xlink:href="#3"/><use xlink:href="#4" y="2.171"/><use xlink:href="#5" y="4.342"/><use xlink:href="#6" y="6.513"/><use xlink:href="#7" y="8.684"/><use xlink:href="#8" y="13.026"/><use xlink:href="#9" y="15.197"/><use xlink:href="#10" y="17.368"/><use xlink:href="#12" y="19.539"/></svg><svg x="3080"><use xlink:href="#a"/><use xlink:href="#b" x="12.996" y="19.514"/><use xlink:href="#3"/><use xlink:href="#4" y="2.171"/><use xlink:href="#5" y="4.342"/><use xlink:href="#6" y="6.513"/><use xlink:href="#7" y="8.684"/><use xlink:href="#8" y="13.026"/><use xlink:href="#9" y="15.197"/><use xlink:href="#10" y="17.368"/><use xlink:href="#12" y="19.539"/></svg><svg x="3168"><use xlink:href="#a"/><use xlink:href="#b" x="13.996" y="19.514"/><use xlink:href="#3"/><use xlink:href="#4" y="2.171"/><use xlink:href="#5" y="4.342"/><use xlink:href="#6" y="6.513"/><use xlink:href="#7" y="8.684"/><use xlink:href="#8" y="13.026"/><use xlink:href="#9" y="15.197"/><use xlink:href="#10" y="17.368"/><text y="21.209" class="j">print</text><text x="6.012" y="21.209" class="j">&quot;hello</text><text x="13.026" y="21.209" class="j">w</text></svg><svg x="3256"><use xlink:href="#a"/><use xlink:href="#b" x="14.996" y="19.514"/><use xlink:href="#3"/><use xlink:href="#4" y="2.171"/><use xlink:href="#5" y="4.342"/><use xlink:href="#6" y="6.513"/><use xlink:href="#7" y="8.684"/><use xlink:href="#8" y="13.026"/><use xlink:href="#9" y="15.197"/><use xlink:href="#10" y="17.368"/><text y="21.209" class="j">print</text><text x="6.012" y="21.209" class="j">&quot;hello</text><text x="13.026" y="21.209" class="j">wo</text></svg><svg x="3344"><use xlink:href="#a"/><use xlink:href="#b" x="15.996" y="19.514"/><use xlink:href="#3"/><use xlink:href="#4" y="2.171"/><use xlink:href="#5" y="4.342"/><use xlink:href="#6" y="6.513"/><use xlink:href="#7" y="8.684"/><use xlink:href="#8" y="13.026"/><use xlink:href="#9" y="15.197"/><use xlink:href="#10" y="17.368"/><text y="21.209" class="j">print</text><text x="6.012" y="21.209" class="j">&quot;hello</text><text x="13.026" y="21.209" class="j">wor</text></svg><svg x="3432"><use xlink:href="#a"/><use xlink:href="#b" x="16.996" y="19.514"/><use xlink:href="#3"/><use xlink:href="#4" y="2.171"/><use xlink:href="#5" y="4.342"/><use xlink:href="#6" y="6.513"/><use xlink:href="#7" y="8.684"/><use xlink:href="#8" y="13.026"/><use xlink:href="#9" y="15.197"/><use xlink:href="#10" y="17.368"/><text y="21.209" class="j">print</text><text x="6.012" y="21.209" class="j">&quot;hello</text><text x="13.026" y="21.209" class="j">worl</text></svg><svg x="3520"><use xlink:href="#a"/><use xlink:href="#b" x="17.996" y="19.514"/><use xlink:href="#3"/><use xlink:href="#4" y="2.171"/><use xlink:href="#5" y="4.342"/><use xlink:href="#6" y="6.513"/><use xlink:href="#7" y="8.684"/><use xlink:href="#8" y="13.026"/><use xlink:href="#9" y="15.197"/><use xlink:href="#10" y="17.368"/><text y="21.209" class="j">print</text><text x="6.012" y="21.209" class="j">&quot;hello</text><text x="13.026" y="21.209" class="j">world</text></svg><svg x="3608"><use xlink:href="#a"/><use xlink:href="#b" x="18.996" y="19.514"/><use xlink:href="#3"/><use xlink:href="#4" y="2.171"/><use xlink:href="#5" y="4.342"/><use xlink:href="#6" y="6.513"/><use xlink:href="#7" y="8.684"/><use xlink:href="#8" y="13.026"/><use xlink:href="#9" y="15.197"/><use xlink:href="#10" y="17.368"/><use xlink:href="#13" y="19.539"/></svg><svg x="3696"><use xlink:href="#a"/><use xlink:href="#b" x="-.004" y="21.685"/><use xlink:href="#3"/><use xlink:href="#4" y="2.171"/><use xlink:href="#5" y="4.342"/><use xlink:href="#6" y="6.513"/><use xlink:href="#7" y="8.684"/><use xlink:href="#8" y="13.026"/><use xlink:href="#9" y="15.197"/><use xlink:href="#10" y="17.368"/><use xlink:href="#13" y="19.539"/></svg><svg x="3784"><use xlink:href="#a"/><use xlink:href="#b" x="-.004" y="28.198"/><use xlink:href="#3"/><use xlink:href="#4" y="2.171"/><use xlink:href="#5" y="4.342"/><use xlink:href="#6" y="6.513"/><use xlink:href="#7" y="8.684"/><use xlink:href="#8" y="13.026"/><use xlink:href="#9" y="15.197"/><use xlink:href="#10" y="17.368"/><use xlink:href="#13" y="19.539"/><use xlink:href="#14" y="21.71"/><use xlink:href="#15" y="26.052"/></svg><svg x="3872"><use xlink:href="#a"/><use xlink:href="#b" x="-.004" y="39.053"/><use xlink:href="#3"/><use xlink:href="#4" y="2.171"/><use xlink:href="#5" y="4.342"/><use xlink:href="#6" y="6.513"/><use xlink:href="#7" y="8.684"/><use xlink:href="#8" y="13.026"/><use xlink:href="#9" y="15.197"/><use xlink:href="#10" y="17.368"/><use xlink:href="#13" y="19.539"/><use xlink:href="#14" y="21.71"/><use xlink:href="#15" y="26.052"/><use xlink:href="#16" y="28.223"/><use xlink:href="#17" y="30.394"/><use xlink:href="#18" y="32.565"/><use xlink:href="#19" y="34.736"/><use xlink:href="#20" y="36.907"/></svg><svg x="3960"><use xlink:href="#a"/><use xlink:href="#b" x="-.004" y="39.053"/><use xlink:href="#7"/><use xlink:href="#8" y="4.342"/><use xlink:href="#9" y="6.513"/><use xlink:href="#10" y="8.684"/><use xlink:href="#13" y="10.855"/><use xlink:href="#14" y="13.026"/><use xlink:href="#15" y="17.368"/><use xlink:href="#16" y="19.539"/><use xlink:href="#17" y="21.71"/><use xlink:href="#18" y="23.881"/><use xlink:href="#19" y="26.052"/><use xlink:href="#20" y="28.223"/><use xlink:href="#21" y="30.394"/><use xlink:href="#22" y="34.736"/><use xlink:href="#23" y="36.907"/></svg><svg x="4048"><use xlink:href="#a"/><use xlink:href="#b" x="1.996" y="39.053"/><use xlink:href="#7"/><use xlink:href="#8" y="4.342"/><use xlink:href="#9" y="6.513"/><use xlink:href="#10" y="8.684"/><use xlink:href="#13" y="10.855"/><use xlink:href="#14" y="13.026"/><use xlink:href="#15" y="17.368"/><use xlink:href="#16" y="19.539"/><use xlink:href="#17" y="21.71"/><use xlink:href="#18" y="23.881"/><use xlink:href="#19" y="26.052"/><use xlink:href="#20" y="28.223"/><use xlink:href="#21" y="30.394"/><use xlink:href="#22" y="34.736"/><use xlink:href="#23" y="36.907"/><use xlink:href="#24" y="39.078"/></svg><svg x="4136"><use xlink:href="#a"/><use xlink:href="#b" x="-.004" y="39.053"/><use xlink:href="#8" y="2.171"/><use xlink:href="#9" y="4.342"/><use xlink:href="#10" y="6.513"/><use xlink:href="#13" y="8.684"/><use xlink:href="#14" y="10.855"/><use xlink:href="#15" y="15.197"/><use xlink:href="#16" y="17.368"/><use xlink:href="#17" y="19.539"/><use xlink:href="#18" y="21.71"/><use xlink:href="#19" y="23.881"/><use xlink:href="#20" y="26.052"/><use xlink:href="#21" y="28.223"/><use xlink:href="#22" y="32.565"/><use xlink:href="#23" y="34.736"/><use xlink:href="#24" y="36.907"/></svg><svg x="4224"><use xlink:href="#a"/><use xlink:href="#b" x="-.004" y="39.053"/><use xlink:href="#8" y="2.171"/><use xlink:href="#9" y="4.342"/><use xlink:href="#10" y="6.513"/><use xlink:href="#13" y="8.684"/><use xlink:href="#14" y="10.855"/><use xlink:href="#15" y="15.197"/><use xlink:href="#16" y="17.368"/><use xlink:href="#17" y="19.539"/><use xlink:href="#18" y="21.71"/><use xlink:href="#19" y="23.881"/><use xlink:href="#20" y="26.052"/><use xlink:href="#21" y="28.223"/><use xlink:href="#22" y="32.565"/><use xlink:href="#23" y="34.736"/><use xlink:href="#24" y="36.907"/></svg><svg x="4312"><use xlink:href="#a"/><use xlink:href="#b" x="-.004" y="39.053"/><use xlink:href="#8" y="2.171"/><use xlink:href="#9" y="4.342"/><use xlink:href="#10" y="6.513"/><use xlink:href="#13" y="8.684"/><use xlink:href="#14" y="10.855"/><use xlink:href="#15" y="15.197"/><use xlink:href="#16" y="17.368"/><use xlink:href="#17" y="19.539"/><use xlink:href="#18" y="21.71"/><use xlink:href="#19" y="23.881"/><use xlink:href="#20" y="26.052"/><use xlink:href="#21" y="28.223"/><use xlink:href="#22" y="32.565"/><use xlink:href="#23" y="34.736"/><use xlink:href="#24" y="36.907"/></svg><svg x="4400"><use xlink:href="#a"/><use xlink:href="#b" x="20.996" y="39.053"/><use xlink:href="#8" y="2.171"/><use xlink:href="#9" y="4.342"/><use xlink:href="#10" y="6.513"/><use xlink:href="#13" y="8.684"/><use xlink:href="#14" y="10.855"/><use xlink:href="#15" y="15.197"/><use xlink:href="#16" y="17.368"/><use xlink:href="#17" y="19.539"/><use xlink:href="#18" y="21.71"/><use xlink:href="#19" y="23.881"/><use xlink:href="#20" y="26.052"/><use xlink:href="#21" y="28.223"/><use xlink:href="#22" y="32.565"/><use xlink:href="#23" y="34.736"/><use xlink:href="#24" y="36.907"/><use xlink:href="#25" y="39.078"/></svg><svg x="4488"><use xlink:href="#a"/><use xlink:href="#b" x="20.996" y="39.053"/><use xlink:href="#8" y="2.171"/><use xlink:href="#9" y="4.342"/><use xlink:href="#10" y="6.513"/><use xlink:href="#13" y="8.684"/><use xlink:href="#14" y="10.855"/><use xlink:href="#15" y="15.197"/><use xlink:href="#16" y="17.368"/><use xlink:href="#17" y="19.539"/><use xlink:href="#18" y="21.71"/><use xlink:href="#19" y="23.881"/><use xlink:href="#20" y="26.052"/><use xlink:href="#21" y="28.223"/><use xlink:href="#22" y="32.565"/><use xlink:href="#23" y="34.736"/><use xlink:href="#24" y="36.907"/><use xlink:href="#25" y="39.078"/></svg><svg x="4576"><use xlink:href="#a"/><use xlink:href="#b" x="-.004" y="39.053"/><use xlink:href="#8"/><use xlink:href="#9" y="2.171"/><use xlink:href="#10" y="4.342"/><use xlink:href="#13" y="6.513"/><use xlink:href="#14" y="8.684"/><use xlink:href="#15" y="13.026"/><use xlink:href="#16" y="15.197"/><use xlink:href="#17" y="17.368"/><use xlink:href="#18" y="19.539"/><use xlink:href="#19" y="21.71"/><use xlink:href="#20" y="23.881"/><use xlink:href="#21" y="26.052"/><use xlink:href="#22" y="30.394"/><use xlink:href="#23" y="32.565"/><use xlink:href="#24" y="34.736"/><use xlink:href="#25" y="36.907"/></svg></svg></g></g></svg></svg>